<svg width="15" height="9" viewBox="0 0 15 9" fill="none" xmlns="http://www.w3.org/2000/svg">
<path d="M8.0853 0.333059L14.7604 7.00822C14.9149 7.16261 15 7.36871 15 7.58846C15 7.80821 14.9149 8.01431 14.7604 8.1687L14.2689 8.66028C13.9487 8.98015 13.4282 8.98015 13.1084 8.66028L7.50311 3.05498L1.89157 8.6665C1.73706 8.82089 1.53108 8.90613 1.31145 8.90613C1.09157 8.90613 0.885601 8.82089 0.730968 8.6665L0.239631 8.17492C0.0851192 8.02041 -1.00139e-06 7.81443 -1.011e-06 7.59468C-1.02061e-06 7.37493 0.0851192 7.16883 0.239631 7.01444L6.9208 0.333059C7.0758 0.178304 7.28274 0.0933059 7.50274 0.0937932C7.72359 0.0933059 7.93042 0.178304 8.0853 0.333059Z" fill="#636363"/>
</svg>
