<svg width="38" height="38" viewBox="0 0 38 38" fill="none" xmlns="http://www.w3.org/2000/svg">
<path d="M15.6797 21.2614C15.7272 21.2174 15.1164 21.7828 20.5317 16.7696C22.9323 14.3691 21.1853 10.3141 17.8577 10.3141C17.0666 10.3141 16.3126 10.5554 15.6796 11.0031C14.2413 9.98567 12.1788 10.0705 10.8275 11.4217C9.35314 12.8962 9.35314 15.2951 10.8275 16.7696L15.6797 21.2614ZM13.5017 12.5407C14.4807 12.5407 14.8044 13.3129 15.6797 14.0747C16.5529 13.3148 16.8785 12.5407 17.8578 12.5407C19.2293 12.5407 19.9275 14.202 18.9704 15.182L15.6797 18.2275L12.3889 15.1819C11.4308 14.201 12.131 12.5407 13.5017 12.5407Z" fill="#8FB100"/>
<path d="M34.4001 33.2421C40.0699 26.7418 38.4682 16.567 30.8892 12.1784C29.3308 5.2178 23.1035 0 15.6796 0C2.28205 0 -4.83753 15.9323 3.99888 25.9061L0.116124 31.1719H12.0199C14.5051 35.3963 19.0326 38 23.955 38H37.9085L34.4001 33.2421ZM6.23301 25.0324C-2.16247 16.6369 3.85749 2.22656 15.6796 2.22656C23.0459 2.22656 29.0389 8.21958 29.0389 15.5859C29.0389 22.9523 23.0459 28.9453 15.6796 28.9453H4.52427L6.91018 25.7096L6.23301 25.0324ZM23.955 35.7734C20.2831 35.7734 16.8741 34.0458 14.6965 31.1719H15.6796C24.3896 31.1719 31.5156 23.9658 31.2582 15.1253C36.5901 19.4293 37.0757 27.4638 32.1682 32.3715L31.491 33.0486L33.5002 35.7734H23.955Z" fill="#8FB100"/>
</svg>
