<svg width="14" height="14" viewBox="0 0 14 14" fill="none" xmlns="http://www.w3.org/2000/svg">
<g clip-path="url(#clip0)">
<path d="M8.54207 5.45688C8.37624 5.29006 8.19236 5.14218 7.99385 5.01596C7.46807 4.67928 6.85683 4.50037 6.23249 4.50037C5.36593 4.49876 4.53458 4.84306 3.9229 5.45688L0.955437 8.42667C0.344797 9.03849 0.00158505 9.86743 0.00103827 10.7318C-0.000109957 12.5357 1.46121 13.9989 3.26502 14C4.13024 14.003 4.96082 13.6603 5.57228 13.0482L8.02184 10.5986C8.06635 10.5545 8.0912 10.4943 8.09085 10.4316C8.09011 10.3028 7.98504 10.1989 7.8562 10.1997H7.76289C7.25111 10.2015 6.74389 10.1032 6.26983 9.91041C6.18249 9.87446 6.0821 9.89474 6.01555 9.96172L4.2542 11.7254C3.70725 12.2724 2.82049 12.2724 2.27355 11.7254C1.72661 11.1785 1.72661 10.2917 2.27355 9.74476L5.25269 6.76797C5.7992 6.22215 6.68451 6.22215 7.23101 6.76797C7.59932 7.1146 8.17382 7.1146 8.5421 6.76797C8.70056 6.60938 8.79663 6.39903 8.81273 6.1754C8.82976 5.90816 8.7312 5.64645 8.54207 5.45688Z" fill="#0069A4"/>
<path d="M13.0423 0.956661C11.7667 -0.318887 9.69864 -0.318887 8.4231 0.956661L5.97586 3.40155C5.90866 3.46907 5.88928 3.57064 5.92687 3.65818C5.96402 3.74596 6.05085 3.80231 6.14615 3.80048H6.23246C6.74364 3.79955 7.25004 3.89859 7.72319 4.0921C7.81054 4.12805 7.91093 4.10776 7.97747 4.04078L9.73416 2.28642C10.2811 1.73948 11.1679 1.73948 11.7148 2.28642C12.2617 2.83336 12.2617 3.72013 11.7148 4.26707L9.52652 6.453L9.50785 6.474L8.74266 7.23453C8.19616 7.78035 7.31084 7.78035 6.76434 7.23453C6.39603 6.88791 5.82153 6.88791 5.45325 7.23453C5.29378 7.39433 5.19763 7.60651 5.18262 7.83175C5.16556 8.09899 5.26412 8.3607 5.45325 8.5503C5.72328 8.82147 6.0392 9.04262 6.38641 9.2035C6.4354 9.22682 6.48439 9.2455 6.53338 9.26649C6.58237 9.28749 6.63369 9.30381 6.68268 9.32248C6.73167 9.34116 6.78298 9.35748 6.83198 9.37148L6.96963 9.40879C7.06293 9.43211 7.15627 9.45078 7.2519 9.46711C7.36711 9.48422 7.48313 9.49513 7.59951 9.49978H7.76281H7.77681L7.91678 9.48345C7.96809 9.48113 8.02176 9.46946 8.08243 9.46946H8.16174L8.32271 9.44614L8.39737 9.43214L8.53267 9.40414H8.55834C9.13139 9.26021 9.65465 8.9635 10.0724 8.54562L13.0422 5.57583C14.3178 4.30028 14.3178 2.23221 13.0423 0.956661Z" fill="#0069A4"/>
</g>
<defs>
<clipPath id="clip0">
<rect width="14" height="14" fill="white"/>
</clipPath>
</defs>
</svg>
