<svg width="18" height="26" viewBox="0 0 18 26" fill="none" xmlns="http://www.w3.org/2000/svg">
<path d="M9.00005 14.0702C12.8854 14.0702 16.0351 10.9204 16.0351 7.03505C16.0351 3.14965 12.8854 0 9.00005 0C5.11465 0 1.965 3.14971 1.965 7.0351C1.96977 10.9185 5.11668 14.0654 9.00005 14.0702ZM9.00005 3.24696C11.0922 3.24696 12.7882 4.94294 12.7882 7.0351C12.7882 9.12726 11.0922 10.8232 9.00005 10.8232C6.90789 10.8232 5.21191 9.12726 5.21191 7.0351C5.21191 4.94294 6.90794 3.24696 9.00005 3.24696Z" fill="white"/>
<path d="M15.8911 17.4037C16.6557 16.9001 17.1163 16.0463 17.1174 15.1308C17.128 14.371 16.6993 13.6733 16.0167 13.3396C15.3153 12.9892 14.4758 13.0681 13.852 13.5431C10.961 15.6507 7.03998 15.6507 4.14901 13.5431C3.52428 13.0706 2.68621 12.9918 1.98436 13.3396C1.30204 13.6733 0.873083 14.3702 0.88257 15.1297C0.884193 16.045 1.3447 16.8986 2.10886 17.4026C3.08924 18.0546 4.15688 18.5647 5.28007 18.9178C5.47058 18.977 5.66717 19.0318 5.86996 19.0824L2.5992 22.2806C1.74119 23.1131 1.72044 24.4835 2.55293 25.3415C3.38542 26.1996 4.75579 26.2203 5.61385 25.3878C5.63171 25.3705 5.64926 25.3529 5.66651 25.3349L9.00008 21.8844L12.3401 25.3414C13.1719 26.2001 14.5423 26.2219 15.401 25.3901C16.2597 24.5583 16.2815 23.1879 15.4497 22.3292C15.4323 22.3113 15.4146 22.2936 15.3966 22.2763L12.1312 19.0813C12.3339 19.0293 12.5313 18.9741 12.7232 18.9157C13.8452 18.5639 14.9118 18.0548 15.8911 17.4037Z" fill="white"/>
</svg>
