<svg width="40" height="40" viewBox="0 0 40 40" fill="none" xmlns="http://www.w3.org/2000/svg">
<circle cx="20" cy="20" r="20" fill="#FF9800"/>
<path d="M20 21.0702C23.8854 21.0702 27.0351 17.9204 27.0351 14.0351C27.0351 10.1497 23.8854 7 20 7C16.1147 7 12.965 10.1497 12.965 14.0351C12.9698 17.9185 16.1167 21.0654 20 21.0702ZM20 10.247C22.0922 10.247 23.7882 11.9429 23.7882 14.0351C23.7882 16.1273 22.0922 17.8232 20 17.8232C17.9079 17.8232 16.2119 16.1273 16.2119 14.0351C16.2119 11.9429 17.9079 10.247 20 10.247Z" fill="white"/>
<path d="M26.8911 24.4037C27.6557 23.9001 28.1163 23.0463 28.1174 22.1308C28.128 21.371 27.6993 20.6733 27.0167 20.3396C26.3153 19.9892 25.4758 20.0681 24.852 20.5431C21.961 22.6507 18.04 22.6507 15.149 20.5431C14.5243 20.0706 13.6862 19.9918 12.9844 20.3396C12.302 20.6733 11.8731 21.3702 11.8826 22.1297C11.8842 23.045 12.3447 23.8986 13.1089 24.4026C14.0892 25.0546 15.1569 25.5647 16.2801 25.9178C16.4706 25.977 16.6672 26.0318 16.87 26.0824L13.5992 29.2806C12.7412 30.1131 12.7204 31.4835 13.5529 32.3415C14.3854 33.1996 15.7558 33.2203 16.6139 32.3878C16.6317 32.3705 16.6493 32.3529 16.6665 32.3349L20.0001 28.8844L23.3401 32.3414C24.1719 33.2001 25.5423 33.2219 26.401 32.3901C27.2597 31.5583 27.2815 30.1879 26.4497 29.3292C26.4323 29.3113 26.4146 29.2936 26.3966 29.2763L23.1312 26.0813C23.3339 26.0293 23.5313 25.9741 23.7232 25.9157C24.8452 25.5639 25.9118 25.0548 26.8911 24.4037Z" fill="white"/>
</svg>
