<svg width="15" height="9" viewBox="0 0 15 9" fill="none" xmlns="http://www.w3.org/2000/svg">
<path d="M6.9147 8.66694L0.239632 1.99178C0.0851212 1.83739 -6.72028e-08 1.63129 -5.75971e-08 1.41154C-4.79913e-08 1.19179 0.0851212 0.985691 0.239632 0.831302L0.731092 0.339723C1.05133 0.0198487 1.57182 0.0198487 1.89157 0.339723L7.49689 5.94502L13.1084 0.333504C13.2629 0.179116 13.4689 0.0938727 13.6885 0.0938727C13.9084 0.0938727 14.1144 0.179116 14.269 0.333504L14.7604 0.825084C14.9149 0.979594 15 1.18557 15 1.40532C15 1.62507 14.9149 1.83117 14.7604 1.98556L8.0792 8.66694C7.9242 8.8217 7.71725 8.90669 7.49726 8.90621C7.2764 8.90669 7.06958 8.8217 6.9147 8.66694Z" fill="#636363"/>
</svg>
